<svg id="Capa_1" data-name="Capa 1" xmlns="http://www.w3.org/2000/svg" viewBox="0 0 296.14 66.33"><defs><style>.cls-1{fill:#fff;}</style></defs><title>Logo_Fondo Metropolitano</title><path class="cls-1" d="M47.14,33.17l9-6.93-23-17.83L9.81,26.6l8.94,6.87-9.39,7.3L32.88,57.93l23.41-18ZM12.25,26.59,33.09,10.31,53.64,26.24l-7.75,6L32.76,22.58,20,32.52ZM41.07,36l-8.33-6.48L24.44,36,21.2,33.46l11.59-9L44.65,33.2Zm-1.22,1-7,5.45-7.14-5.48,7.07-5.5Zm-7,19.13-21-15.32L20,34.41l12.83,9.86,13.1-10.15,7.88,5.81Z"/><path class="cls-1" d="M67.59,17.49H78V19.1h-8.4v5.24h8.23V26H69.56v7.35h-2Z"/><path class="cls-1" d="M82.63,32.81a5.42,5.42,0,0,1-2-2.18,7,7,0,0,1,0-6.09,5.49,5.49,0,0,1,2-2.18,6.05,6.05,0,0,1,6,0,5.34,5.34,0,0,1,2,2.18,7,7,0,0,1,0,6.09,5.28,5.28,0,0,1-2,2.18,5.92,5.92,0,0,1-6,0Zm5-1.3A3.91,3.91,0,0,0,89,29.84a5.63,5.63,0,0,0,.45-2.26A5.5,5.5,0,0,0,89,25.34a4,4,0,0,0-1.31-1.66,3.4,3.4,0,0,0-2-.62,3.46,3.46,0,0,0-2.05.62,3.94,3.94,0,0,0-1.32,1.66,5.5,5.5,0,0,0-.45,2.24,5.63,5.63,0,0,0,.45,2.26,3.85,3.85,0,0,0,1.32,1.67,3.46,3.46,0,0,0,2.05.62A3.4,3.4,0,0,0,87.66,31.51Z"/><path class="cls-1" d="M102,25.74a2.73,2.73,0,0,0-.66-2.07,2.76,2.76,0,0,0-1.9-.61,3.94,3.94,0,0,0-1.94.53A4.35,4.35,0,0,0,96,24.86v8.45H94.23V21.85H96v1.66a6,6,0,0,1,1.78-1.36,4.92,4.92,0,0,1,2.31-.58q3.65,0,3.65,3.7v8H102Z"/><path class="cls-1" d="M115.66,31.61A5.16,5.16,0,0,1,114,33.07a4.5,4.5,0,0,1-2.18.55,4.7,4.7,0,0,1-4.45-2.81,7.32,7.32,0,0,1-.66-3.2,7.52,7.52,0,0,1,.64-3.18,4.93,4.93,0,0,1,1.81-2.11,4.78,4.78,0,0,1,2.66-.75,4.58,4.58,0,0,1,2.14.53,5.09,5.09,0,0,1,1.72,1.48V17.49h1.78V33.31h-1.78Zm0-6.65a3.83,3.83,0,0,0-1.46-1.35,3.9,3.9,0,0,0-2-.55,3.24,3.24,0,0,0-2.68,1.28,5.18,5.18,0,0,0-1,3.27,5.1,5.1,0,0,0,1,3.25,3.23,3.23,0,0,0,2.68,1.27,4,4,0,0,0,2-.54,3.91,3.91,0,0,0,1.44-1.31Z"/><path class="cls-1" d="M123.07,32.81a5.28,5.28,0,0,1-2-2.18,7,7,0,0,1,0-6.09,5.34,5.34,0,0,1,2-2.18,5.57,5.57,0,0,1,8,2.18,7,7,0,0,1,0,6.09,5.42,5.42,0,0,1-2,2.18,5.92,5.92,0,0,1-6,0Zm5-1.3a3.89,3.89,0,0,0,1.3-1.67,5.63,5.63,0,0,0,.45-2.26,5.5,5.5,0,0,0-.45-2.24,4,4,0,0,0-1.3-1.66,3.68,3.68,0,0,0-4.09,0,3.94,3.94,0,0,0-1.32,1.66,5.5,5.5,0,0,0-.45,2.24,5.63,5.63,0,0,0,.45,2.26A3.85,3.85,0,0,0,124,31.51a3.68,3.68,0,0,0,4.09,0Z"/><path class="cls-1" d="M154.44,20.29l-5.39,13h-.8l-5.37-13v13h-2V17.49h2.83l4.91,11.91,4.94-11.91h2.82V33.31h-2Z"/><path class="cls-1" d="M160.16,24.56a5.66,5.66,0,0,1,2-2.18,5.27,5.27,0,0,1,2.89-.81,5.34,5.34,0,0,1,2.93.8,5.27,5.27,0,0,1,1.91,2.21,7.29,7.29,0,0,1,.67,3.13v.45H161.3A4.36,4.36,0,0,0,162.53,31a3.87,3.87,0,0,0,2.9,1.14,5.18,5.18,0,0,0,1.93-.38,4.69,4.69,0,0,0,1.6-1.07l.86,1.16a6.12,6.12,0,0,1-4.56,1.78,5.91,5.91,0,0,1-3-.76,5.36,5.36,0,0,1-2.08-2.14,6.45,6.45,0,0,1-.75-3.14A6.34,6.34,0,0,1,160.16,24.56Zm2.89-1A3.7,3.7,0,0,0,161.78,25a3.91,3.91,0,0,0-.47,1.7h7.51a4,4,0,0,0-.44-1.7,3.44,3.44,0,0,0-1.26-1.37,3.75,3.75,0,0,0-2.07-.54A3.6,3.6,0,0,0,163.05,23.6Z"/><path class="cls-1" d="M174.49,32.93a2.85,2.85,0,0,1-.64-2V23.35H172v-1.5h1.9V18.72h1.78v3.13H178v1.5h-2.33v7.27a1.84,1.84,0,0,0,.3,1.1,1,1,0,0,0,.86.41,2,2,0,0,0,.69-.13,1.26,1.26,0,0,0,.52-.35l.52,1.28a3.1,3.1,0,0,1-2.13.69A2.47,2.47,0,0,1,174.49,32.93Z"/><path class="cls-1" d="M180.52,21.85h1.78V23.7A6.29,6.29,0,0,1,184,22.16a4,4,0,0,1,2.1-.59v1.68a3.23,3.23,0,0,0-.71-.07,3.39,3.39,0,0,0-1.76.58A3.89,3.89,0,0,0,182.3,25v8.27h-1.78Z"/><path class="cls-1" d="M190.41,32.81a5.42,5.42,0,0,1-2-2.18,7,7,0,0,1,0-6.09,5.49,5.49,0,0,1,2-2.18,6.05,6.05,0,0,1,6,0,5.44,5.44,0,0,1,2,2.18,7.06,7.06,0,0,1,0,6.09,5.37,5.37,0,0,1-2,2.18,5.92,5.92,0,0,1-6,0Zm5-1.3a3.91,3.91,0,0,0,1.31-1.67,5.63,5.63,0,0,0,.45-2.26,5.5,5.5,0,0,0-.45-2.24,4,4,0,0,0-1.31-1.66,3.4,3.4,0,0,0-2-.62,3.46,3.46,0,0,0-2.05.62A3.94,3.94,0,0,0,190,25.34a5.5,5.5,0,0,0-.45,2.24,5.63,5.63,0,0,0,.45,2.26,3.85,3.85,0,0,0,1.32,1.67,3.46,3.46,0,0,0,2.05.62A3.4,3.4,0,0,0,195.44,31.51Z"/><path class="cls-1" d="M202,37.68V21.85h1.78v1.71a4.77,4.77,0,0,1,1.66-1.45,4.63,4.63,0,0,1,2.21-.54,4.92,4.92,0,0,1,2.65.72,4.79,4.79,0,0,1,1.81,2.1,7.53,7.53,0,0,1,.64,3.19,7.58,7.58,0,0,1-.64,3.2,4.93,4.93,0,0,1-1.81,2.11,4.84,4.84,0,0,1-2.65.73,4.67,4.67,0,0,1-2.18-.52,4.81,4.81,0,0,1-1.69-1.49v6.07Zm7.88-13.35a3.24,3.24,0,0,0-2.69-1.27,3.9,3.9,0,0,0-2,.55,3.83,3.83,0,0,0-1.43,1.32v5.3a3.67,3.67,0,0,0,1.43,1.35,3.9,3.9,0,0,0,2,.55,3.25,3.25,0,0,0,2.69-1.28,5.18,5.18,0,0,0,1-3.27A5.1,5.1,0,0,0,209.9,24.33Z"/><path class="cls-1" d="M217.7,32.81a5.42,5.42,0,0,1-2-2.18,7,7,0,0,1,0-6.09,5.49,5.49,0,0,1,2-2.18,6.05,6.05,0,0,1,6,0,5.34,5.34,0,0,1,2,2.18,7,7,0,0,1,0,6.09,5.28,5.28,0,0,1-2,2.18,5.92,5.92,0,0,1-6,0Zm5-1.3A3.91,3.91,0,0,0,224,29.84a5.63,5.63,0,0,0,.45-2.26,5.5,5.5,0,0,0-.45-2.24,4,4,0,0,0-1.31-1.66,3.4,3.4,0,0,0-2-.62,3.46,3.46,0,0,0-2.05.62,3.94,3.94,0,0,0-1.32,1.66,5.5,5.5,0,0,0-.45,2.24,5.63,5.63,0,0,0,.45,2.26,3.85,3.85,0,0,0,1.32,1.67,3.46,3.46,0,0,0,2.05.62A3.4,3.4,0,0,0,222.73,31.51Z"/><path class="cls-1" d="M230,32.93a2.8,2.8,0,0,1-.64-2V17.49h1.78V30.64a1.77,1.77,0,0,0,.29,1.08,1,1,0,0,0,.87.41,2,2,0,0,0,.68-.13,1.36,1.36,0,0,0,.51-.35l.52,1.28a3.08,3.08,0,0,1-2.11.69A2.46,2.46,0,0,1,230,32.93Z"/><path class="cls-1" d="M235.76,19.91a1.14,1.14,0,0,1-.35-.86,1.18,1.18,0,0,1,.35-.87,1.13,1.13,0,0,1,.83-.36,1.18,1.18,0,0,1,.86.36,1.22,1.22,0,0,1,.35.87,1.2,1.2,0,0,1-1.21,1.21A1.12,1.12,0,0,1,235.76,19.91Zm0,1.94h1.78V33.31h-1.78Z"/><path class="cls-1" d="M242.1,32.93a2.85,2.85,0,0,1-.64-2V23.35h-1.9v-1.5h1.9V18.72h1.78v3.13h2.32v1.5h-2.32v7.27a1.84,1.84,0,0,0,.29,1.1,1,1,0,0,0,.87.41,2,2,0,0,0,.69-.13,1.32,1.32,0,0,0,.52-.35l.52,1.28a3.1,3.1,0,0,1-2.13.69A2.46,2.46,0,0,1,242.1,32.93Z"/><path class="cls-1" d="M256.43,31.61a5.1,5.1,0,0,1-1.69,1.46,4.47,4.47,0,0,1-2.18.55,4.84,4.84,0,0,1-2.64-.72,5,5,0,0,1-1.81-2.09,7.46,7.46,0,0,1-.65-3.2,7.37,7.37,0,0,1,.64-3.18,5,5,0,0,1,1.8-2.11,4.81,4.81,0,0,1,2.66-.75,4.59,4.59,0,0,1,2.15.53,5.28,5.28,0,0,1,1.72,1.48V21.85h1.78V33.31h-1.78Zm0-6.65a4.29,4.29,0,0,0-3.44-1.9,3.23,3.23,0,0,0-2.68,1.28,5.12,5.12,0,0,0-1,3.27,5,5,0,0,0,1,3.25A3.22,3.22,0,0,0,253,32.13a4.31,4.31,0,0,0,3.44-1.85Z"/><path class="cls-1" d="M269.55,25.74a2.73,2.73,0,0,0-.66-2.07,2.76,2.76,0,0,0-1.9-.61,3.94,3.94,0,0,0-1.94.53,4.21,4.21,0,0,0-1.45,1.27v8.45h-1.78V21.85h1.78v1.66a5.77,5.77,0,0,1,1.78-1.36,4.88,4.88,0,0,1,2.3-.58q3.65,0,3.65,3.7v8h-1.78Z"/><path class="cls-1" d="M277,32.81a5.37,5.37,0,0,1-2-2.18,7,7,0,0,1,0-6.09,5.44,5.44,0,0,1,2-2.18,5.57,5.57,0,0,1,8,2.18,7,7,0,0,1,0,6.09,5.42,5.42,0,0,1-2,2.18,5.92,5.92,0,0,1-6,0Zm5-1.3a3.89,3.89,0,0,0,1.3-1.67,5.63,5.63,0,0,0,.45-2.26,5.5,5.5,0,0,0-.45-2.24,4,4,0,0,0-1.3-1.66,3.4,3.4,0,0,0-2-.62,3.49,3.49,0,0,0-2.06.62,4,4,0,0,0-1.31,1.66,5.5,5.5,0,0,0-.45,2.24,5.63,5.63,0,0,0,.45,2.26,3.91,3.91,0,0,0,1.31,1.67,3.49,3.49,0,0,0,2.06.62A3.4,3.4,0,0,0,282,31.51Z"/><path class="cls-1" d="M71.4,48.64a2.9,2.9,0,0,1-1,.82,2.5,2.5,0,0,1-1.22.32,2.65,2.65,0,0,1-2.5-1.59,4,4,0,0,1-.37-1.79,4.13,4.13,0,0,1,.36-1.78A2.66,2.66,0,0,1,69.23,43a2.54,2.54,0,0,1,1.2.3,2.85,2.85,0,0,1,1,.83V40.72h1V49.6h-1Zm0-3.73a2.32,2.32,0,0,0-.82-.76,2.26,2.26,0,0,0-1.11-.3,1.83,1.83,0,0,0-1.51.71,3.29,3.29,0,0,0,0,3.67,1.83,1.83,0,0,0,1.51.71,2.27,2.27,0,0,0,1.12-.3,2.33,2.33,0,0,0,.81-.74Z"/><path class="cls-1" d="M74.46,44.69a3.22,3.22,0,0,1,1.14-1.23A3,3,0,0,1,77.22,43a2.87,2.87,0,0,1,2.72,1.69,4,4,0,0,1,.37,1.76v.25H75.1a2.52,2.52,0,0,0,.69,1.59,2.21,2.21,0,0,0,1.63.64,3,3,0,0,0,1.09-.22,2.41,2.41,0,0,0,.89-.6l.49.66a3.48,3.48,0,0,1-2.56,1,3.37,3.37,0,0,1-1.69-.43,3.07,3.07,0,0,1-1.17-1.2,3.67,3.67,0,0,1-.42-1.77A3.61,3.61,0,0,1,74.46,44.69Zm1.63-.54a2,2,0,0,0-.71.77,2.07,2.07,0,0,0-.27.95h4.22a2.32,2.32,0,0,0-.25-.95,1.94,1.94,0,0,0-.71-.77,2.11,2.11,0,0,0-1.16-.3A2,2,0,0,0,76.09,44.15Z"/><path class="cls-1" d="M85.77,49.39a1.59,1.59,0,0,1-.36-1.12V40.72h1V48.1a1,1,0,0,0,.17.61.56.56,0,0,0,.48.23,1,1,0,0,0,.38-.08.77.77,0,0,0,.29-.19l.29.72a1.7,1.7,0,0,1-1.18.39A1.39,1.39,0,0,1,85.77,49.39Z"/><path class="cls-1" d="M93.67,48.64a2.86,2.86,0,0,1-.94.82,2.51,2.51,0,0,1-1.23.32A2.72,2.72,0,0,1,90,49.37a2.82,2.82,0,0,1-1-1.18,4.17,4.17,0,0,1-.36-1.79A4.13,4.13,0,0,1,89,44.62,2.66,2.66,0,0,1,91.5,43a2.55,2.55,0,0,1,1.21.3,2.82,2.82,0,0,1,1,.83v-1h1V49.6h-1Zm0-3.73a2.37,2.37,0,0,0-1.93-1.06,1.81,1.81,0,0,0-1.5.71,3.29,3.29,0,0,0,0,3.67,1.81,1.81,0,0,0,1.5.71,2.24,2.24,0,0,0,1.12-.3,2.17,2.17,0,0,0,.81-.74Z"/><path class="cls-1" d="M102.09,49.19a4.21,4.21,0,0,1-1.64-1.63,5,5,0,0,1,0-4.78,4.28,4.28,0,0,1,1.64-1.63,4.67,4.67,0,0,1,2.32-.58,4.19,4.19,0,0,1,2,.43,3.92,3.92,0,0,1,1.41,1.25l-.93.52a2.92,2.92,0,0,0-1-.93,2.86,2.86,0,0,0-1.4-.36,3.33,3.33,0,0,0-3,1.78,4.37,4.37,0,0,0,0,3.82,3.33,3.33,0,0,0,1.24,1.31,3.25,3.25,0,0,0,1.74.48,2.93,2.93,0,0,0,2.44-1.29l.94.52a4.07,4.07,0,0,1-3.38,1.68A4.68,4.68,0,0,1,102.09,49.19Z"/><path class="cls-1" d="M113.54,48.7a3.57,3.57,0,0,1-1,.76,2.73,2.73,0,0,1-1.28.32,1.82,1.82,0,0,1-2.06-2.06V43.17h1v4.28a1.5,1.5,0,0,0,.37,1.15,1.54,1.54,0,0,0,1.07.34,2.25,2.25,0,0,0,1.09-.29,2.36,2.36,0,0,0,.82-.7V43.17h1V49.6h-1Z"/><path class="cls-1" d="M116.92,49.39a1.59,1.59,0,0,1-.36-1.12V40.72h1V48.1a1,1,0,0,0,.17.61.56.56,0,0,0,.48.23,1,1,0,0,0,.38-.08.77.77,0,0,0,.29-.19l.29.72a1.71,1.71,0,0,1-1.18.39A1.39,1.39,0,0,1,116.92,49.39Z"/><path class="cls-1" d="M120.72,49.39a1.61,1.61,0,0,1-.36-1.13V44h-1.07v-.84h1.07V41.41h1v1.76h1.3V44h-1.3v4.08a1,1,0,0,0,.16.61.56.56,0,0,0,.49.24,1.09,1.09,0,0,0,.39-.08.77.77,0,0,0,.29-.19l.29.72a1.73,1.73,0,0,1-1.2.39A1.37,1.37,0,0,1,120.72,49.39Z"/><path class="cls-1" d="M128.44,48.7a3.39,3.39,0,0,1-1,.76,2.77,2.77,0,0,1-1.29.32,1.82,1.82,0,0,1-2.05-2.06V43.17h1v4.28a1.5,1.5,0,0,0,.37,1.15,1.54,1.54,0,0,0,1.07.34,2.31,2.31,0,0,0,1.09-.29,2.24,2.24,0,0,0,.81-.7V43.17h1V49.6h-1Z"/><path class="cls-1" d="M131.47,43.17h1v1a3.31,3.31,0,0,1,1-.87,2.26,2.26,0,0,1,1.18-.33V44a2.46,2.46,0,0,0-.4,0,1.87,1.87,0,0,0-1,.33,2.12,2.12,0,0,0-.76.72V49.6h-1Z"/><path class="cls-1" d="M140.55,48.64a2.86,2.86,0,0,1-.94.82,2.51,2.51,0,0,1-1.23.32,2.72,2.72,0,0,1-1.48-.41,2.82,2.82,0,0,1-1-1.18,4.17,4.17,0,0,1-.36-1.79,4.13,4.13,0,0,1,.36-1.78,2.76,2.76,0,0,1,1-1.19,2.7,2.7,0,0,1,1.49-.42,2.55,2.55,0,0,1,1.21.3,2.73,2.73,0,0,1,1,.83v-1h1V49.6h-1Zm0-3.73a2.37,2.37,0,0,0-1.93-1.06,1.81,1.81,0,0,0-1.5.71,3.29,3.29,0,0,0,0,3.67,1.81,1.81,0,0,0,1.5.71,2.24,2.24,0,0,0,1.12-.3,2.17,2.17,0,0,0,.81-.74Z"/><path class="cls-1" d="M143.34,50.81a2.2,2.2,0,0,0,.58-.56,1.51,1.51,0,0,0,.28-.67.62.62,0,0,1-.18,0,.59.59,0,0,1-.46-.19.73.73,0,0,1,0-1,.63.63,0,0,1,.5-.22.76.76,0,0,1,.59.28,1.06,1.06,0,0,1,.24.74,2.27,2.27,0,0,1-.3,1.12,2.83,2.83,0,0,1-.79.89Z"/><path class="cls-1" d="M150.49,49.39a1.59,1.59,0,0,1-.36-1.12V40.72h1V48.1a1,1,0,0,0,.17.61.57.57,0,0,0,.49.23,1,1,0,0,0,.38-.08.82.82,0,0,0,.28-.19l.29.72a1.7,1.7,0,0,1-1.18.39A1.39,1.39,0,0,1,150.49,49.39Z"/><path class="cls-1" d="M158.39,48.64a2.86,2.86,0,0,1-.94.82,2.54,2.54,0,0,1-1.23.32,2.72,2.72,0,0,1-1.48-.41,2.75,2.75,0,0,1-1-1.18,4.17,4.17,0,0,1-.36-1.79,4.13,4.13,0,0,1,.36-1.78,2.66,2.66,0,0,1,2.5-1.61,2.55,2.55,0,0,1,1.21.3,2.82,2.82,0,0,1,1,.83v-1h1V49.6h-1Zm0-3.73a2.37,2.37,0,0,0-1.93-1.06,1.81,1.81,0,0,0-1.5.71,3.29,3.29,0,0,0,0,3.67,1.81,1.81,0,0,0,1.5.71,2.38,2.38,0,0,0,1.93-1Z"/><path class="cls-1" d="M161.38,48a2.69,2.69,0,0,0,.91.65,2.84,2.84,0,0,0,1.2.27,1.76,1.76,0,0,0,1.12-.32,1,1,0,0,0,.4-.82.73.73,0,0,0-.22-.56,1.32,1.32,0,0,0-.54-.32c-.21-.07-.51-.16-.89-.26a9.39,9.39,0,0,1-1.2-.34,2,2,0,0,1-.8-.54,1.37,1.37,0,0,1-.33-1,1.59,1.59,0,0,1,.29-.91,1.93,1.93,0,0,1,.82-.65,3,3,0,0,1,1.29-.25,3.16,3.16,0,0,1,2.38,1l-.46.69a2.31,2.31,0,0,0-.82-.59,2.64,2.64,0,0,0-1.1-.22,1.71,1.71,0,0,0-1,.28.86.86,0,0,0-.39.72.62.62,0,0,0,.38.59,6.71,6.71,0,0,0,1.19.38,9.68,9.68,0,0,1,1.24.36,2.09,2.09,0,0,1,.83.58,1.56,1.56,0,0,1,.35,1.06,1.77,1.77,0,0,1-.67,1.41,2.89,2.89,0,0,1-1.87.55,3.36,3.36,0,0,1-2.59-1Z"/><path class="cls-1" d="M176.7,47.63h-4.43l-.78,2h-1.27l3.57-8.88h1.38l3.58,8.88h-1.27Zm-4.14-.91h3.8l-1.87-4.78Z"/><path class="cls-1" d="M179.89,43.17h1v1a3.47,3.47,0,0,1,1-.87A2.26,2.26,0,0,1,183,43V44a2.58,2.58,0,0,0-.4,0,1.93,1.93,0,0,0-1,.33,2.3,2.3,0,0,0-.76.72V49.6h-1Z"/><path class="cls-1" d="M184.88,49.39a1.61,1.61,0,0,1-.36-1.13V44h-1.07v-.84h1.07V41.41h1v1.76h1.3V44h-1.3v4.08a1,1,0,0,0,.16.61.56.56,0,0,0,.49.24,1.09,1.09,0,0,0,.39-.08.77.77,0,0,0,.29-.19l.29.72a1.73,1.73,0,0,1-1.2.39A1.37,1.37,0,0,1,184.88,49.39Z"/><path class="cls-1" d="M188.3,44.69a3.2,3.2,0,0,1,1.13-1.23,3,3,0,0,1,1.63-.45,2.89,2.89,0,0,1,2.72,1.69,4,4,0,0,1,.37,1.76v.25h-5.21a2.47,2.47,0,0,0,.69,1.59,2.21,2.21,0,0,0,1.63.64,3,3,0,0,0,1.09-.22,2.41,2.41,0,0,0,.89-.6l.48.66a3.44,3.44,0,0,1-2.55,1,3.41,3.41,0,0,1-1.7-.43,3.11,3.11,0,0,1-1.16-1.2,3.67,3.67,0,0,1-.42-1.77A3.61,3.61,0,0,1,188.3,44.69Zm1.63-.54a2.12,2.12,0,0,0-.72.77,2.18,2.18,0,0,0-.26.95h4.21a2.3,2.3,0,0,0-.24-.95,1.94,1.94,0,0,0-.71-.77,2.11,2.11,0,0,0-1.16-.3A2,2,0,0,0,189.93,44.15Z"/><path class="cls-1" d="M195.75,48a2.69,2.69,0,0,0,.91.65,2.85,2.85,0,0,0,1.21.27,1.78,1.78,0,0,0,1.12-.32,1,1,0,0,0,.4-.82.77.77,0,0,0-.22-.56,1.46,1.46,0,0,0-.54-.32c-.22-.07-.51-.16-.9-.26a9.9,9.9,0,0,1-1.2-.34,1.87,1.87,0,0,1-.79-.54,1.33,1.33,0,0,1-.34-1,1.59,1.59,0,0,1,.29-.91,1.93,1.93,0,0,1,.82-.65A3,3,0,0,1,197.8,43a3.16,3.16,0,0,1,2.38,1l-.46.69a2.36,2.36,0,0,0-.81-.59,2.72,2.72,0,0,0-1.11-.22,1.71,1.71,0,0,0-1,.28.86.86,0,0,0-.39.72.62.62,0,0,0,.38.59,6.6,6.6,0,0,0,1.2.38,10,10,0,0,1,1.23.36,2.09,2.09,0,0,1,.83.58,1.56,1.56,0,0,1,.35,1.06,1.74,1.74,0,0,1-.67,1.41,2.86,2.86,0,0,1-1.86.55,3.37,3.37,0,0,1-2.6-1Z"/><path class="cls-1" d="M205.91,50.49a2.06,2.06,0,0,0,.86.66,2.64,2.64,0,0,0,1.1.22,1.94,1.94,0,0,0,1.43-.51,2,2,0,0,0,.52-1.46v-.86a3.44,3.44,0,0,1-1,.76,2.83,2.83,0,0,1-1.28.3,1.81,1.81,0,0,1-2.06-2V43.17h1v4.11a1.52,1.52,0,0,0,.37,1.15,1.54,1.54,0,0,0,1.07.33,2.24,2.24,0,0,0,1.09-.28,2.34,2.34,0,0,0,.82-.69V43.17h1v6.26a2.57,2.57,0,0,1-.84,2.08,3.14,3.14,0,0,1-2.11.7A3.82,3.82,0,0,1,206.5,52a3.35,3.35,0,0,1-1.09-.74Z"/><path class="cls-1" d="M216.67,49.39a1.59,1.59,0,0,1-.37-1.12V40.72h1V48.1a1,1,0,0,0,.17.61.57.57,0,0,0,.49.23,1,1,0,0,0,.38-.08.73.73,0,0,0,.28-.19l.3.72a1.74,1.74,0,0,1-1.19.39A1.35,1.35,0,0,1,216.67,49.39Z"/><path class="cls-1" d="M224.56,48.64a2.77,2.77,0,0,1-.94.82,2.51,2.51,0,0,1-1.23.32,2.72,2.72,0,0,1-1.48-.41,2.82,2.82,0,0,1-1-1.18,4.17,4.17,0,0,1-.36-1.79,4.13,4.13,0,0,1,.36-1.78,2.76,2.76,0,0,1,1-1.19,2.7,2.7,0,0,1,1.49-.42,2.55,2.55,0,0,1,1.21.3,2.73,2.73,0,0,1,1,.83v-1h1V49.6h-1Zm0-3.73a2.33,2.33,0,0,0-1.93-1.06,1.81,1.81,0,0,0-1.5.71,3.29,3.29,0,0,0,0,3.67,1.81,1.81,0,0,0,1.5.71,2.24,2.24,0,0,0,1.12-.3,2.17,2.17,0,0,0,.81-.74Z"/><path class="cls-1" d="M227.55,48a2.8,2.8,0,0,0,.91.65,2.85,2.85,0,0,0,1.21.27,1.78,1.78,0,0,0,1.12-.32,1,1,0,0,0,.4-.82.77.77,0,0,0-.22-.56,1.46,1.46,0,0,0-.54-.32c-.22-.07-.51-.16-.9-.26a10.46,10.46,0,0,1-1.2-.34,1.87,1.87,0,0,1-.79-.54,1.33,1.33,0,0,1-.34-1,1.59,1.59,0,0,1,.29-.91,2,2,0,0,1,.83-.65A3,3,0,0,1,229.6,43,3.2,3.2,0,0,1,232,44l-.47.69a2.36,2.36,0,0,0-.81-.59,2.72,2.72,0,0,0-1.11-.22,1.73,1.73,0,0,0-1,.28.85.85,0,0,0-.38.72.61.61,0,0,0,.37.59,6.87,6.87,0,0,0,1.2.38,9.47,9.47,0,0,1,1.23.36,2.09,2.09,0,0,1,.83.58,1.56,1.56,0,0,1,.35,1.06,1.74,1.74,0,0,1-.67,1.41,2.86,2.86,0,0,1-1.86.55,3.38,3.38,0,0,1-2.6-1Z"/><path class="cls-1" d="M239.21,49.19a4.24,4.24,0,0,1-1.65-1.63,5.06,5.06,0,0,1,0-4.78,4.31,4.31,0,0,1,1.65-1.63,4.61,4.61,0,0,1,2.31-.58,4.19,4.19,0,0,1,2,.43,4,4,0,0,1,1.42,1.25l-.94.52a2.76,2.76,0,0,0-1-.93,2.83,2.83,0,0,0-1.4-.36,3.27,3.27,0,0,0-1.74.47,3.31,3.31,0,0,0-1.23,1.31,4.28,4.28,0,0,0,0,3.82,3.38,3.38,0,0,0,1.23,1.31,3.28,3.28,0,0,0,1.74.48,2.94,2.94,0,0,0,1.4-.35,2.79,2.79,0,0,0,1-.94l.95.52a4.07,4.07,0,0,1-3.39,1.68A4.62,4.62,0,0,1,239.21,49.19Z"/><path class="cls-1" d="M246.33,42.08a.69.69,0,0,1,0-1,.64.64,0,0,1,.47-.21.63.63,0,0,1,.48.21.68.68,0,1,1-.95,1Zm0,1.09h1V49.6h-1Z"/><path class="cls-1" d="M249.37,44.69a3.2,3.2,0,0,1,1.13-1.23,3,3,0,0,1,1.63-.45,2.89,2.89,0,0,1,2.72,1.69,4,4,0,0,1,.37,1.76v.25H250a2.47,2.47,0,0,0,.69,1.59,2.21,2.21,0,0,0,1.63.64,3,3,0,0,0,1.09-.22,2.41,2.41,0,0,0,.89-.6l.48.66a3.44,3.44,0,0,1-2.55,1,3.41,3.41,0,0,1-1.7-.43,3.11,3.11,0,0,1-1.16-1.2,3.67,3.67,0,0,1-.42-1.77A3.61,3.61,0,0,1,249.37,44.69Zm1.63-.54a2.12,2.12,0,0,0-.72.77,2.18,2.18,0,0,0-.26.95h4.21a2.3,2.3,0,0,0-.24-.95,1.94,1.94,0,0,0-.71-.77,2.11,2.11,0,0,0-1.16-.3A2,2,0,0,0,251,44.15Z"/><path class="cls-1" d="M261.2,45.35a1.27,1.27,0,0,0-1.44-1.5,2.24,2.24,0,0,0-1.08.29,2.42,2.42,0,0,0-.82.72V49.6h-1V43.17h1v.93a3.36,3.36,0,0,1,1-.77,2.8,2.8,0,0,1,1.29-.32,1.82,1.82,0,0,1,2.05,2.08V49.6h-1Z"/><path class="cls-1" d="M264.26,44.66a3.07,3.07,0,0,1,1.13-1.21,3.11,3.11,0,0,1,1.67-.44,3.19,3.19,0,0,1,1.39.27,2.94,2.94,0,0,1,1,.79l-.66.62a1.94,1.94,0,0,0-1.64-.84,2,2,0,0,0-1.62.71,2.67,2.67,0,0,0-.61,1.82,2.72,2.72,0,0,0,.61,1.84,2,2,0,0,0,1.62.72,2,2,0,0,0,1.64-.84l.66.61a2.82,2.82,0,0,1-1,.79,3.18,3.18,0,0,1-1.39.28,3.12,3.12,0,0,1-1.67-.45,3,3,0,0,1-1.13-1.21,3.85,3.85,0,0,1,0-3.46Z"/><path class="cls-1" d="M270.87,42.08a.69.69,0,0,1,0-1,.64.64,0,0,1,.47-.21.63.63,0,0,1,.48.21.68.68,0,1,1-.95,1Zm0,1.09h1V49.6h-1Z"/><path class="cls-1" d="M278.53,48.64a2.86,2.86,0,0,1-.94.82,2.51,2.51,0,0,1-1.23.32,2.72,2.72,0,0,1-1.48-.41,2.82,2.82,0,0,1-1-1.18,4.17,4.17,0,0,1-.36-1.79,4.13,4.13,0,0,1,.36-1.78,2.66,2.66,0,0,1,2.5-1.61,2.55,2.55,0,0,1,1.21.3,2.82,2.82,0,0,1,1,.83v-1h1V49.6h-1Zm0-3.73a2.37,2.37,0,0,0-1.93-1.06,1.81,1.81,0,0,0-1.5.71,3.29,3.29,0,0,0,0,3.67,1.81,1.81,0,0,0,1.5.71,2.24,2.24,0,0,0,1.12-.3,2.17,2.17,0,0,0,.81-.74Z"/><path class="cls-1" d="M281.52,48a2.69,2.69,0,0,0,.91.65,2.85,2.85,0,0,0,1.21.27,1.78,1.78,0,0,0,1.12-.32,1,1,0,0,0,.4-.82.77.77,0,0,0-.22-.56,1.46,1.46,0,0,0-.54-.32c-.22-.07-.51-.16-.9-.26a9.9,9.9,0,0,1-1.2-.34,1.87,1.87,0,0,1-.79-.54,1.33,1.33,0,0,1-.34-1,1.59,1.59,0,0,1,.29-.91,1.93,1.93,0,0,1,.82-.65,3,3,0,0,1,1.29-.25A3.16,3.16,0,0,1,286,44l-.46.69a2.36,2.36,0,0,0-.81-.59,2.72,2.72,0,0,0-1.11-.22,1.71,1.71,0,0,0-1,.28.86.86,0,0,0-.39.72.62.62,0,0,0,.38.59,6.6,6.6,0,0,0,1.2.38,10,10,0,0,1,1.23.36,2.09,2.09,0,0,1,.83.58,1.56,1.56,0,0,1,.35,1.06,1.74,1.74,0,0,1-.67,1.41,2.86,2.86,0,0,1-1.86.55,3.37,3.37,0,0,1-2.6-1Z"/></svg>