<svg id="Capa_1" data-name="Capa 1" xmlns="http://www.w3.org/2000/svg" viewBox="0 0 384.14 179.33"><defs><style>.cls-1{fill:#fff;}</style></defs><title>Logo Cátedra La Ferla_op1</title><path class="cls-1" d="M257.4,95.72H240.85a.86.86,0,1,1,0-1.72H257.4a46.49,46.49,0,0,0,16.69-2.71,28.92,28.92,0,0,0,11.47-7.76A32.18,32.18,0,0,0,292.22,71a63.28,63.28,0,0,0,2.17-17.36c0-12.35-3.21-21.65-9.55-27.63s-15.59-9-27.44-9H231.23V48.1a.86.86,0,1,1-1.72,0V15.21H257.4c12.31,0,21.94,3.2,28.62,9.5s10.09,16,10.09,28.88a64.83,64.83,0,0,1-2.24,17.84,34,34,0,0,1-7,13.24A30.62,30.62,0,0,1,274.7,92.9,48.25,48.25,0,0,1,257.4,95.72Zm.88-8.83H240V24h18.52a33.44,33.44,0,0,1,12.57,2.1,20.89,20.89,0,0,1,8.46,6.22,25.18,25.18,0,0,1,4.68,9.82A54,54,0,0,1,285.63,55a46.06,46.06,0,0,1-1.53,12.66,31,31,0,0,1-3.92,8.79,20.77,20.77,0,0,1-5.47,5.64,26.75,26.75,0,0,1-6.1,3.13,25.4,25.4,0,0,1-5.82,1.37C261,86.79,259.49,86.89,258.28,86.89Zm-16.57-1.72h16.57a43.28,43.28,0,0,0,4.33-.27A24.23,24.23,0,0,0,268,83.62a25.22,25.22,0,0,0,5.71-2.94,19.35,19.35,0,0,0,5-5.17,29.68,29.68,0,0,0,3.69-8.31A44.2,44.2,0,0,0,283.91,55a52,52,0,0,0-1.36-12.42,23.36,23.36,0,0,0-4.36-9.16,18.92,18.92,0,0,0-7.76-5.7,31.51,31.51,0,0,0-11.92-2h-16.8Z"/><path class="cls-1" d="M338.78,95.72h-12.2v-70H300.32V15.21h64.73V25.76H338.78ZM328.3,94h8.76V24h26.26V16.93H302V24H328.3Z"/><path class="cls-1" d="M100,95.72H86.57l-.2-.57L62.19,28.06,37,95.72H24.46L55.8,15.21H68.56ZM87.78,94h9.73L67.39,16.93H57L27,94h8.85l26.4-70.93Z"/><path class="cls-1" d="M141.34,97.48A39,39,0,0,1,125,94.26a32.49,32.49,0,0,1-11.67-8.9,38.25,38.25,0,0,1-7-13.32,56.84,56.84,0,0,1-2.3-16.36,53.81,53.81,0,0,1,2.47-16.42,40,40,0,0,1,7.28-13.48,34.25,34.25,0,0,1,12-9.11,38.81,38.81,0,0,1,16.42-3.34A41.39,41.39,0,0,1,154.17,15a32.31,32.31,0,0,1,10.08,5,28.22,28.22,0,0,1,7.4,8.25,30.46,30.46,0,0,1,3.87,11.41.86.86,0,1,1-1.71.24,28.43,28.43,0,0,0-3.64-10.76,26.58,26.58,0,0,0-6.94-7.76,30.84,30.84,0,0,0-9.56-4.72,40,40,0,0,0-11.45-1.62,37,37,0,0,0-15.69,3.18,32.39,32.39,0,0,0-11.4,8.65,38.37,38.37,0,0,0-7,12.9,52,52,0,0,0-2.38,15.9A54.89,54.89,0,0,0,108,71.55a36.52,36.52,0,0,0,6.63,12.72A30.76,30.76,0,0,0,125.7,92.7a37.4,37.4,0,0,0,15.64,3.06c9.8,0,17.62-2.7,23.24-8s9-13,10-22.63a.86.86,0,1,1,1.71.17c-1,10.1-4.59,18.07-10.53,23.71S151.6,97.48,141.34,97.48Zm.88-8.72A26.88,26.88,0,0,1,129.69,86a24.69,24.69,0,0,1-8.63-7.37,31.47,31.47,0,0,1-4.94-10.78,52.18,52.18,0,0,1-1.57-13,46.83,46.83,0,0,1,1.57-12.14,31.91,31.91,0,0,1,4.94-10.49,24.76,24.76,0,0,1,8.57-7.37,26.49,26.49,0,0,1,12.48-2.75,25.25,25.25,0,0,1,14.78,4.35c4.18,2.91,6.91,7.32,8.13,13.11a.86.86,0,1,1-1.68.35c-1.13-5.34-3.63-9.4-7.43-12a23.62,23.62,0,0,0-13.8-4,24.9,24.9,0,0,0-11.68,2.55,23.15,23.15,0,0,0-8,6.86,30,30,0,0,0-4.67,9.93,45.09,45.09,0,0,0-1.51,11.69,50.2,50.2,0,0,0,1.52,12.53,29.6,29.6,0,0,0,4.66,10.19,22.85,22.85,0,0,0,8,6.86A25.09,25.09,0,0,0,142.22,87a22.61,22.61,0,0,0,8.88-1.64,20.07,20.07,0,0,0,6.67-4.55,21.19,21.19,0,0,0,4.4-6.94,29.88,29.88,0,0,0,1.93-8.79.86.86,0,0,1,.91-.8.85.85,0,0,1,.8.91,31,31,0,0,1-2,9.31A22.91,22.91,0,0,1,159,82.05,22.07,22.07,0,0,1,151.77,87,24.31,24.31,0,0,1,142.22,88.76Z"/><path class="cls-1" d="M67.44,69a5.2,5.2,0,1,1-5.2-5.21A5.2,5.2,0,0,1,67.44,69"/><path class="cls-1" d="M25.25,123.14a4.73,4.73,0,0,1,2.22.45,3.2,3.2,0,0,1,1.3,1.28,5.67,5.67,0,0,1,.63,2,18.84,18.84,0,0,1,.16,2.61,20,20,0,0,1-.2,3,5.77,5.77,0,0,1-.73,2.09,3.11,3.11,0,0,1-1.37,1.22,5.07,5.07,0,0,1-2.17.4H20.94v-13Zm-.51,11.11a2.24,2.24,0,0,0,1.12-.24,1.59,1.59,0,0,0,.66-.79,4.25,4.25,0,0,0,.33-1.44c.06-.6.08-1.34.08-2.23s0-1.39-.07-2a5,5,0,0,0-.3-1.4,1.74,1.74,0,0,0-.68-.84,2.16,2.16,0,0,0-1.19-.28H23.57v9.17Z"/><path class="cls-1" d="M31.43,123.14h2.63v13H31.43Z"/><path class="cls-1" d="M38.13,132.49a4.17,4.17,0,0,0,.08.83,1.39,1.39,0,0,0,.27.63,1.26,1.26,0,0,0,.54.41,2.29,2.29,0,0,0,.85.14,1.71,1.71,0,0,0,1.09-.39,1.48,1.48,0,0,0,.48-1.21,2.13,2.13,0,0,0-.12-.76,1.49,1.49,0,0,0-.39-.58,3.08,3.08,0,0,0-.72-.46,9.29,9.29,0,0,0-1.11-.43,10.54,10.54,0,0,1-1.52-.64,4,4,0,0,1-1.06-.82,2.83,2.83,0,0,1-.63-1.07,4.39,4.39,0,0,1-.2-1.42,3.66,3.66,0,0,1,1.07-2.89,4.35,4.35,0,0,1,3-1,6.3,6.3,0,0,1,1.62.2,3.25,3.25,0,0,1,1.28.62,2.85,2.85,0,0,1,.84,1.09,3.9,3.9,0,0,1,.3,1.6v.37H41.24a2.65,2.65,0,0,0-.33-1.44,1.23,1.23,0,0,0-1.1-.5,1.77,1.77,0,0,0-.73.13,1.15,1.15,0,0,0-.46.34,1.09,1.09,0,0,0-.24.48,2.62,2.62,0,0,0-.07.57,1.87,1.87,0,0,0,.26,1,2.33,2.33,0,0,0,1.1.76l2,.88a6,6,0,0,1,1.22.68,3.25,3.25,0,0,1,.76.77,2.42,2.42,0,0,1,.39.9,5.32,5.32,0,0,1,.11,1.1,3.56,3.56,0,0,1-1.2,3,5.24,5.24,0,0,1-3.33.94,4.39,4.39,0,0,1-3.19-1,3.79,3.79,0,0,1-1-2.78v-.53h2.63Z"/><path class="cls-1" d="M52.78,125.3H48.13v3.06h4.38v2.16H48.13V134H53v2.15H45.49v-13h7.29Z"/><path class="cls-1" d="M60.49,132.07h0v-8.93h2.41v13h-3l-3.21-9.13h0v9.13H54.28v-13h3Zm-4.17-11.54a1.33,1.33,0,0,1,1.12-.59,2,2,0,0,1,.79.13l.87.38a1.38,1.38,0,0,0,.55.11.42.42,0,0,0,.39-.23,1,1,0,0,0,.12-.42h1.32a3.28,3.28,0,0,1-.55,1.62,1.36,1.36,0,0,1-1.15.64,1.65,1.65,0,0,1-.58-.1l-.58-.21-.54-.21a1.24,1.24,0,0,0-.47-.1c-.3,0-.49.22-.59.66H55.74A3.64,3.64,0,0,1,56.32,120.53Z"/><path class="cls-1" d="M64.63,126.93a6.1,6.1,0,0,1,.6-2.15,3.35,3.35,0,0,1,1.35-1.39,5.69,5.69,0,0,1,4.71,0,3.39,3.39,0,0,1,1.34,1.39,6.1,6.1,0,0,1,.6,2.15,26.79,26.79,0,0,1,0,5.47,6,6,0,0,1-.6,2.14,3.22,3.22,0,0,1-1.34,1.37,6.14,6.14,0,0,1-4.71,0,3.19,3.19,0,0,1-1.35-1.37,6,6,0,0,1-.6-2.14,26.79,26.79,0,0,1,0-5.47Zm2.56,5a6.65,6.65,0,0,0,.25,1.5,1.69,1.69,0,0,0,.55.84,1.59,1.59,0,0,0,.94.26,1.56,1.56,0,0,0,.94-.26,1.69,1.69,0,0,0,.55-.84,6.08,6.08,0,0,0,.26-1.5c0-.62.06-1.36.06-2.24s0-1.62-.06-2.23a5.91,5.91,0,0,0-.26-1.49,1.64,1.64,0,0,0-.55-.85,1.5,1.5,0,0,0-.94-.27,1.52,1.52,0,0,0-.94.27,1.64,1.64,0,0,0-.55.85,6.45,6.45,0,0,0-.25,1.49c0,.61-.06,1.35-.06,2.23S67.14,131.28,67.19,131.9Z"/><path class="cls-1" d="M86.29,125.3H83.44v10.88H80.81V125.3H78v-2.16h8.33Z"/><path class="cls-1" d="M92.28,123.14a3.68,3.68,0,0,1,2.56.83,3.26,3.26,0,0,1,.91,2.53,4,4,0,0,1-.53,2.15,2.47,2.47,0,0,1-1.64,1.07v0a2.39,2.39,0,0,1,1.44.64,2.8,2.8,0,0,1,.57,1.59c0,.25,0,.51,0,.8s0,.6,0,1a15.45,15.45,0,0,0,.11,1.58,1,1,0,0,0,.47.75v.11H93.41a1.35,1.35,0,0,1-.25-.63c0-.23-.06-.48-.08-.74l-.07-2.5a2.09,2.09,0,0,0-.38-1.2,1.39,1.39,0,0,0-1.17-.44H90.05v5.51H87.42v-13Zm-1.13,5.7a2.14,2.14,0,0,0,1.46-.45,1.92,1.92,0,0,0,.51-1.51,1.6,1.6,0,0,0-1.83-1.8H90.05v3.76Z"/><path class="cls-1" d="M103.37,123.14l3.45,13h-2.74l-.6-2.76H100l-.61,2.76H96.66l3.46-13Zm-.35,8.13-1.26-5.87h0l-1.26,5.87Z"/><path class="cls-1" d="M114,132.07h0v-8.93h2.41v13h-3l-3.22-9.13h0v9.13h-2.42v-13h3Z"/><path class="cls-1" d="M120.34,132.49a4.21,4.21,0,0,0,.07.83,1.4,1.4,0,0,0,.28.63,1.29,1.29,0,0,0,.53.41,2.32,2.32,0,0,0,.85.14,1.68,1.68,0,0,0,1.09-.39,1.48,1.48,0,0,0,.48-1.21,2.14,2.14,0,0,0-.11-.76,1.41,1.41,0,0,0-.4-.58,2.71,2.71,0,0,0-.72-.46,9.07,9.07,0,0,0-1.1-.43,10.08,10.08,0,0,1-1.52-.64,4.1,4.1,0,0,1-1.07-.82,3,3,0,0,1-.63-1.07,4.68,4.68,0,0,1-.2-1.42,3.66,3.66,0,0,1,1.08-2.89,4.33,4.33,0,0,1,3-1,6.42,6.42,0,0,1,1.62.2,3.15,3.15,0,0,1,1.27.62,2.85,2.85,0,0,1,.84,1.09,3.74,3.74,0,0,1,.31,1.6v.37h-2.53a2.74,2.74,0,0,0-.32-1.44,1.23,1.23,0,0,0-1.1-.5,1.73,1.73,0,0,0-.73.13,1.13,1.13,0,0,0-.7.82,2.12,2.12,0,0,0-.07.57,1.87,1.87,0,0,0,.26,1,2.29,2.29,0,0,0,1.09.76l2,.88a5.8,5.8,0,0,1,1.23.68,3.4,3.4,0,0,1,.75.77,2.61,2.61,0,0,1,.4.9,5.32,5.32,0,0,1,.11,1.1,3.56,3.56,0,0,1-1.2,3,5.26,5.26,0,0,1-3.33.94,4.39,4.39,0,0,1-3.19-1,3.79,3.79,0,0,1-1-2.78v-.53h2.63Z"/><path class="cls-1" d="M131.67,123.14l1.86,9.21h0l1.89-9.21h3.89v13h-2.41V125.77h0l-2.32,10.41h-2l-2.32-10.41h0v10.41h-2.41v-13Z"/><path class="cls-1" d="M148.51,125.3h-4.66v3.06h4.38v2.16h-4.38V134h4.84v2.15h-7.47v-13h7.29Z"/><path class="cls-1" d="M154.45,123.14a4.69,4.69,0,0,1,2.21.45,3.14,3.14,0,0,1,1.3,1.28,5.67,5.67,0,0,1,.63,2,20.78,20.78,0,0,1,0,5.6,5.59,5.59,0,0,1-.73,2.09,3.14,3.14,0,0,1-1.36,1.22,5.15,5.15,0,0,1-2.18.4h-4.15v-13Zm-.52,11.11a2.24,2.24,0,0,0,1.12-.24,1.66,1.66,0,0,0,.67-.79,4.53,4.53,0,0,0,.32-1.44c.06-.6.09-1.34.09-2.23s0-1.39-.08-2a5,5,0,0,0-.3-1.4,1.74,1.74,0,0,0-.68-.84,2.16,2.16,0,0,0-1.19-.28h-1.12v9.17Z"/><path class="cls-1" d="M160.62,123.14h2.63v13h-2.63Z"/><path class="cls-1" d="M171,123.14l3.45,13h-2.74l-.6-2.76h-3.47l-.61,2.76h-2.74l3.45-13Zm-.35,8.13-1.26-5.87h0l-1.26,5.87Z"/><path class="cls-1" d="M182.91,128.18h0l1.83-5h2.85l-3.38,7.91v5.13h-2.63v-5.13l-3.38-7.91h3Z"/><path class="cls-1" d="M198.11,123.14l3.45,13h-2.74l-.6-2.76h-3.48l-.6,2.76H191.4l3.45-13Zm-.35,8.13-1.26-5.87h0l-1.26,5.87Z"/><path class="cls-1" d="M207.33,123.14a3.68,3.68,0,0,1,2.56.83,3.26,3.26,0,0,1,.91,2.53,3.89,3.89,0,0,1-.53,2.15,2.47,2.47,0,0,1-1.64,1.07v0a2.36,2.36,0,0,1,1.44.64,2.73,2.73,0,0,1,.57,1.59c0,.25,0,.51.05.8s0,.6,0,1a15.45,15.45,0,0,0,.11,1.58,1,1,0,0,0,.47.75v.11h-2.85a1.35,1.35,0,0,1-.25-.63,5.64,5.64,0,0,1-.07-.74l-.08-2.5a2,2,0,0,0-.38-1.2,1.38,1.38,0,0,0-1.17-.44H205.1v5.51h-2.63v-13Zm-1.13,5.7a2.14,2.14,0,0,0,1.46-.45,1.92,1.92,0,0,0,.51-1.51,1.6,1.6,0,0,0-1.83-1.8H205.1v3.76Z"/><path class="cls-1" d="M219.94,125.3h-2.85v10.88h-2.63V125.3h-2.85v-2.16h8.33Z"/><path class="cls-1" d="M228.36,125.3H223.7v3.06h4.38v2.16H223.7V134h4.84v2.15h-7.47v-13h7.29Z"/><path class="cls-1" d="M239.47,125.47a1.26,1.26,0,0,0-1.23-.65,1.2,1.2,0,0,0-.81.27,1.73,1.73,0,0,0-.5.85,7,7,0,0,0-.26,1.56c0,.64-.07,1.42-.07,2.34a22.13,22.13,0,0,0,.1,2.4,5,5,0,0,0,.31,1.41,1.27,1.27,0,0,0,.53.68,1.58,1.58,0,0,0,.74.17,1.78,1.78,0,0,0,.65-.12,1.1,1.1,0,0,0,.52-.47,3.12,3.12,0,0,0,.34-1,8.69,8.69,0,0,0,.13-1.7h2.63a11.86,11.86,0,0,1-.16,2,4.76,4.76,0,0,1-.61,1.66,3.1,3.1,0,0,1-1.26,1.11,4.8,4.8,0,0,1-2.12.4,4.9,4.9,0,0,1-2.35-.47,3.22,3.22,0,0,1-1.34-1.37,6,6,0,0,1-.61-2.14,28.84,28.84,0,0,1,0-5.47,6.1,6.1,0,0,1,.61-2.15,3.39,3.39,0,0,1,1.34-1.39,5.65,5.65,0,0,1,4.58,0,3.15,3.15,0,0,1,1.21,1.16,3.9,3.9,0,0,1,.5,1.52,11.85,11.85,0,0,1,.1,1.52h-2.63A4.64,4.64,0,0,0,239.47,125.47Z"/><path class="cls-1" d="M243.91,126.93a6.1,6.1,0,0,1,.61-2.15,3.32,3.32,0,0,1,1.34-1.39,5.69,5.69,0,0,1,4.71,0,3.32,3.32,0,0,1,1.34,1.39,6.1,6.1,0,0,1,.61,2.15,28.84,28.84,0,0,1,0,5.47,6,6,0,0,1-.61,2.14,3.17,3.17,0,0,1-1.34,1.37,6.14,6.14,0,0,1-4.71,0,3.17,3.17,0,0,1-1.34-1.37,6,6,0,0,1-.61-2.14,28.84,28.84,0,0,1,0-5.47Zm2.56,5a6.08,6.08,0,0,0,.26,1.5,1.68,1.68,0,0,0,.54.84,1.85,1.85,0,0,0,1.89,0,1.68,1.68,0,0,0,.54-.84,6.08,6.08,0,0,0,.26-1.5c0-.62.06-1.36.06-2.24s0-1.62-.06-2.23a5.91,5.91,0,0,0-.26-1.49,1.63,1.63,0,0,0-.54-.85,1.79,1.79,0,0,0-1.89,0,1.63,1.63,0,0,0-.54.85,5.91,5.91,0,0,0-.26,1.49c0,.61-.06,1.35-.06,2.23S246.43,131.28,246.47,131.9Z"/><path class="cls-1" d="M260.42,132.07h0v-8.93h2.41v13h-3l-3.22-9.13h0v9.13h-2.41v-13h3Z"/><path class="cls-1" d="M272.33,125.3h-2.85v10.88h-2.63V125.3H264v-2.16h8.33Z"/><path class="cls-1" d="M280.75,125.3h-4.66v3.06h4.39v2.16h-4.39V134h4.84v2.15h-7.47v-13h7.29Z"/><path class="cls-1" d="M286.21,123.14l1.87,9.21h0l1.88-9.21h3.9v13h-2.42V125.77h0l-2.32,10.41h-2.05l-2.32-10.41h0v10.41H282.3v-13Z"/><path class="cls-1" d="M300.37,123.14a3.74,3.74,0,0,1,1.69.34,3.06,3.06,0,0,1,1.11.88,3.53,3.53,0,0,1,.6,1.25,5.8,5.8,0,0,1,.18,1.44,4.68,4.68,0,0,1-.3,1.75,3.21,3.21,0,0,1-.84,1.23,3.67,3.67,0,0,1-1.31.71,5.63,5.63,0,0,1-1.7.24h-1.4v5.2h-2.63v-13Zm-.8,5.9a1.78,1.78,0,0,0,1.27-.47,2,2,0,0,0,.48-1.48,2.31,2.31,0,0,0-.42-1.5,1.73,1.73,0,0,0-1.41-.51H298.4v4Z"/><path class="cls-1" d="M305.11,126.93a6.1,6.1,0,0,1,.6-2.15,3.35,3.35,0,0,1,1.35-1.39,5.69,5.69,0,0,1,4.71,0,3.39,3.39,0,0,1,1.34,1.39,6.32,6.32,0,0,1,.61,2.15,28.84,28.84,0,0,1,0,5.47,6.26,6.26,0,0,1-.61,2.14,3.22,3.22,0,0,1-1.34,1.37,6.14,6.14,0,0,1-4.71,0,3.19,3.19,0,0,1-1.35-1.37,6,6,0,0,1-.6-2.14,26.79,26.79,0,0,1,0-5.47Zm2.56,5a6.65,6.65,0,0,0,.25,1.5,1.69,1.69,0,0,0,.55.84,1.59,1.59,0,0,0,.94.26,1.56,1.56,0,0,0,.94-.26,1.69,1.69,0,0,0,.55-.84,6.08,6.08,0,0,0,.26-1.5c0-.62.06-1.36.06-2.24s0-1.62-.06-2.23a5.91,5.91,0,0,0-.26-1.49,1.64,1.64,0,0,0-.55-.85,1.5,1.5,0,0,0-.94-.27,1.52,1.52,0,0,0-.94.27,1.64,1.64,0,0,0-.55.85,6.45,6.45,0,0,0-.25,1.49c0,.61-.06,1.35-.06,2.23S307.63,131.28,307.67,131.9Z"/><path class="cls-1" d="M320.26,123.14a3.68,3.68,0,0,1,2.56.83,3.27,3.27,0,0,1,.92,2.53,4,4,0,0,1-.53,2.15,2.51,2.51,0,0,1-1.65,1.07v0a2.36,2.36,0,0,1,1.44.64,2.66,2.66,0,0,1,.57,1.59c0,.25,0,.51.06.8s0,.6,0,1c0,.69.06,1.22.11,1.58a1,1,0,0,0,.48.75v.11H321.4a1.36,1.36,0,0,1-.26-.63c0-.23-.06-.48-.07-.74l-.07-2.5a2.09,2.09,0,0,0-.39-1.2,1.38,1.38,0,0,0-1.17-.44H318v5.51H315.4v-13Zm-1.13,5.7a2.13,2.13,0,0,0,1.46-.45,1.93,1.93,0,0,0,.52-1.51,1.6,1.6,0,0,0-1.83-1.8H318v3.76Z"/><path class="cls-1" d="M331.35,123.14l3.45,13h-2.74l-.6-2.76H328l-.6,2.76h-2.74l3.45-13Zm-.34,8.13-1.27-5.87h0l-1.26,5.87Zm1-11.53-1.79,2.63h-1.72l1-2.63Z"/><path class="cls-1" d="M341.93,132.07h0v-8.93h2.41v13h-3l-3.21-9.13h0v9.13h-2.41v-13h3Z"/><path class="cls-1" d="M353.49,125.3h-4.65v3.06h4.38v2.16h-4.38V134h4.84v2.15h-7.47v-13h7.28Z"/><path class="cls-1" d="M354.86,126.93a6.1,6.1,0,0,1,.6-2.15,3.39,3.39,0,0,1,1.34-1.39,5.69,5.69,0,0,1,4.71,0,3.35,3.35,0,0,1,1.35,1.39,6.1,6.1,0,0,1,.6,2.15,26.79,26.79,0,0,1,0,5.47,6,6,0,0,1-.6,2.14,3.19,3.19,0,0,1-1.35,1.37,6.14,6.14,0,0,1-4.71,0,3.22,3.22,0,0,1-1.34-1.37,6,6,0,0,1-.6-2.14,26.79,26.79,0,0,1,0-5.47Zm2.55,5a6.59,6.59,0,0,0,.26,1.5,1.69,1.69,0,0,0,.55.84,1.56,1.56,0,0,0,.94.26,1.59,1.59,0,0,0,.94-.26,1.69,1.69,0,0,0,.55-.84,6.65,6.65,0,0,0,.25-1.5c.05-.62.07-1.36.07-2.24s0-1.62-.07-2.23a6.45,6.45,0,0,0-.25-1.49,1.64,1.64,0,0,0-.55-.85,1.52,1.52,0,0,0-.94-.27,1.5,1.5,0,0,0-.94.27,1.64,1.64,0,0,0-.55.85,6.39,6.39,0,0,0-.26,1.49c0,.61-.06,1.35-.06,2.23S357.37,131.28,357.41,131.9Z"/><path class="cls-1" d="M26.05,150.39a1.28,1.28,0,0,0-1.24-.65A1.24,1.24,0,0,0,24,150a1.73,1.73,0,0,0-.5.85,7.62,7.62,0,0,0-.26,1.56c0,.64-.07,1.42-.07,2.34s0,1.79.1,2.4a5.33,5.33,0,0,0,.31,1.41,1.32,1.32,0,0,0,.53.68,1.58,1.58,0,0,0,.74.17,1.75,1.75,0,0,0,.65-.12,1.06,1.06,0,0,0,.52-.47,3.1,3.1,0,0,0,.35-1,9.55,9.55,0,0,0,.13-1.7h2.63a11.85,11.85,0,0,1-.17,2,4.57,4.57,0,0,1-.61,1.66,3.1,3.1,0,0,1-1.26,1.11,4.75,4.75,0,0,1-2.11.4,5,5,0,0,1-2.36-.47,3.22,3.22,0,0,1-1.34-1.37,6,6,0,0,1-.6-2.14,26.79,26.79,0,0,1,0-5.47,6.1,6.1,0,0,1,.6-2.15,3.39,3.39,0,0,1,1.34-1.39A4.7,4.7,0,0,1,25,147.8a4.59,4.59,0,0,1,2.22.46,3.08,3.08,0,0,1,1.21,1.16,4.08,4.08,0,0,1,.51,1.52,14,14,0,0,1,.1,1.52H26.39A4.79,4.79,0,0,0,26.05,150.39Z"/><path class="cls-1" d="M36.41,148.06l3.46,13H37.13l-.6-2.76H33.05l-.6,2.76H29.71l3.45-13Zm-.34,8.13-1.26-5.87h0l-1.26,5.87Zm1-11.53-1.79,2.63H33.6l1-2.63Z"/><path class="cls-1" d="M48.42,150.22H45.57V161.1H42.94V150.22H40.09v-2.16h8.33Z"/><path class="cls-1" d="M56.84,150.22H52.18v3.06h4.38v2.16H52.18V159H57v2.15H49.55v-13h7.29Z"/><path class="cls-1" d="M62.78,148.06a4.69,4.69,0,0,1,2.21.45,3.14,3.14,0,0,1,1.3,1.28,5.67,5.67,0,0,1,.63,2,20.78,20.78,0,0,1,0,5.6,5.77,5.77,0,0,1-.72,2.09,3.22,3.22,0,0,1-1.37,1.22,5.15,5.15,0,0,1-2.18.4H58.47v-13Zm-.52,11.11a2.24,2.24,0,0,0,1.12-.24,1.66,1.66,0,0,0,.67-.79,4.79,4.79,0,0,0,.33-1.44c.05-.6.08-1.34.08-2.23,0-.74,0-1.39-.08-1.95a5,5,0,0,0-.3-1.4,1.72,1.72,0,0,0-.67-.84,2.22,2.22,0,0,0-1.2-.28H61.1v9.17Z"/><path class="cls-1" d="M73.68,148.06a3.68,3.68,0,0,1,2.56.83,3.25,3.25,0,0,1,.91,2.53,3.89,3.89,0,0,1-.53,2.15A2.47,2.47,0,0,1,75,154.64v0a2.36,2.36,0,0,1,1.44.64A2.66,2.66,0,0,1,77,156.9c0,.25,0,.51.05.8s0,.6,0,1c0,.7.06,1.23.11,1.59a1,1,0,0,0,.47.75v.11H74.81a1.47,1.47,0,0,1-.25-.63,5.64,5.64,0,0,1-.07-.74l-.08-2.5A2,2,0,0,0,74,156a1.38,1.38,0,0,0-1.17-.44H71.45v5.51H68.82v-13Zm-1.13,5.7a2.14,2.14,0,0,0,1.46-.45,1.92,1.92,0,0,0,.51-1.51A1.6,1.6,0,0,0,72.7,150H71.45v3.76Z"/><path class="cls-1" d="M84.77,148.06l3.45,13H85.48l-.6-2.76H81.41l-.6,2.76H78.07l3.45-13Zm-.35,8.13-1.26-5.87h0l-1.26,5.87Z"/><path class="cls-1" d="M93.52,148.06h2.63V159h4.66v2.15H93.52Z"/><path class="cls-1" d="M107.77,148.06l3.45,13h-2.74l-.6-2.76h-3.47l-.6,2.76h-2.74l3.45-13Zm-.35,8.13-1.26-5.87h0l-1.26,5.87Z"/><path class="cls-1" d="M123.81,148.06v2.16h-4.66v3.06h4.39v2.16h-4.39v5.66h-2.63v-13Z"/><path class="cls-1" d="M132.27,150.22h-4.66v3.06H132v2.16h-4.38V159h4.84v2.15H125v-13h7.29Z"/><path class="cls-1" d="M138.63,148.06a3.67,3.67,0,0,1,2.55.83,3.25,3.25,0,0,1,.92,2.53,4,4,0,0,1-.53,2.15,2.51,2.51,0,0,1-1.65,1.07v0a2.42,2.42,0,0,1,1.45.64,2.73,2.73,0,0,1,.56,1.59c0,.25,0,.51.06.8s0,.6,0,1c0,.7.06,1.23.11,1.59a1,1,0,0,0,.48.75v.11h-2.85a1.36,1.36,0,0,1-.26-.63c0-.23-.06-.48-.07-.74l-.07-2.5A2.09,2.09,0,0,0,139,156a1.38,1.38,0,0,0-1.17-.44h-1.4v5.51h-2.63v-13Zm-1.14,5.7a2.13,2.13,0,0,0,1.46-.45,1.89,1.89,0,0,0,.52-1.51,1.6,1.6,0,0,0-1.83-1.8H136.4v3.76Z"/><path class="cls-1" d="M143.92,148.06h2.63V159h4.66v2.15h-7.29Z"/><path class="cls-1" d="M158.17,148.06l3.46,13h-2.74l-.61-2.76h-3.47l-.6,2.76h-2.74l3.45-13Zm-.35,8.13-1.26-5.87h0l-1.26,5.87Z"/><path class="cls-1" d="M170.07,147.81h1.2L167,161.36h-1.21Z"/><path class="cls-1" d="M176.39,148.06H178v9.17c0,1.92.62,2.81,2.21,2.81s2.22-1,2.22-2.81v-9.17H184v9.17c0,2.5-1.28,4.13-3.83,4.13s-3.82-1.44-3.82-4.13Z"/><path class="cls-1" d="M186,148.06h4a3,3,0,0,1,3.34,3.34,2.8,2.8,0,0,1-1.9,2.73v0a3,3,0,0,1,2.32,3.22c0,2.65-1.5,3.72-4.22,3.72H186Zm1.6,5.63h1.85a2,2,0,0,0,2.21-2.18c0-1.35-.68-2.13-2.25-2.13h-1.81Zm0,6.1h2.19a2.14,2.14,0,0,0,2.29-2.41,2.3,2.3,0,0,0-2.56-2.49h-1.92Z"/><path class="cls-1" d="M198.05,148.06h2.16l3.51,13H202l-.94-3.58h-4.16l-1,3.58h-1.68Zm-.78,8.15h3.51l-1.67-6.3h0Z"/><path class="cls-1" d="M204.92,159.17h1.68v1.59c0,1.38-.11,2.63-1.68,3.05V163a1.3,1.3,0,0,0,.81-1.41v-.44h-.81Z"/><path class="cls-1" d="M212.74,148.06h6.74v1.43h-5.13v4.09h4.84V155h-4.84v6.1h-1.61Z"/><path class="cls-1" d="M222.44,148.06h2.16l3.5,13h-1.68l-.93-3.58h-4.16l-1,3.58h-1.68Zm-.78,8.15h3.5l-1.66-6.3h0Z"/><path class="cls-1" d="M229.18,148.06h3.49c4.06,0,4.57,2.92,4.57,6.52,0,3.29-.82,6.52-4.4,6.52h-3.66Zm1.61,11.73h1.68c2.78,0,3.09-2.85,3.09-5.19,0-2.52-.17-5.22-3.09-5.22h-1.68Z"/><path class="cls-1" d="M239,148.06h1.61v9.17c0,1.92.62,2.81,2.21,2.81s2.22-1,2.22-2.81v-9.17h1.61v9.17c0,2.5-1.28,4.13-3.83,4.13s-3.82-1.44-3.82-4.13Z"/><path class="cls-1" d="M184.64,95.75a1,1,0,0,1-.34-.07.89.89,0,0,1-.48-1.16l32.31-78.79a.89.89,0,0,1,1.64.68L185.46,95.19A.88.88,0,0,1,184.64,95.75Z"/></svg>